<?xml version="1.0" standalone="no"?>
<!DOCTYPE svg PUBLIC "-//W3C//DTD SVG 20010904//EN"
 "http://www.w3.org/TR/2001/REC-SVG-20010904/DTD/svg10.dtd">
<svg version="1.0" xmlns="http://www.w3.org/2000/svg"
 width="16.000000pt" height="16.000000pt" viewBox="0 0 16.000000 16.000000"
 preserveAspectRatio="xMidYMid meet">
<metadata>
Created by potrace 1.11, written by Peter Selinger 2001-2013
</metadata>
<g transform="translate(0.000000,16.000000) scale(0.005575,-0.005575)"
fill="#000000" stroke="none">
<path d="M0 1435 l0 -1435 1435 0 1435 0 0 1435 0 1435 -1435 0 -1435 0 0
-1435z m2119 992 c69 -25 133 -84 166 -152 46 -94 56 -339 19 -472 -41 -146
-179 -230 -363 -221 -147 7 -253 72 -303 185 -47 107 -47 388 1 499 28 64 91
126 156 155 92 41 224 43 324 6z m-1381 -339 l2 -348 210 0 c236 0 230 2 230
-77 0 -76 10 -74 -310 -71 l-285 3 -3 410 c-1 225 0 416 3 423 3 9 25 12 77
10 l73 -3 3 -347z m278 -824 c114 -31 196 -120 218 -235 9 -50 -7 -61 -86 -57
-63 3 -63 3 -82 43 -25 54 -44 75 -91 96 -45 21 -138 25 -182 8 -40 -15 -73
-48 -94 -94 -15 -32 -19 -65 -19 -170 0 -71 5 -148 11 -170 45 -160 314 -168
374 -10 l18 45 67 0 c82 0 93 -9 79 -69 -36 -161 -181 -251 -386 -239 -182 10
-295 117 -325 305 -13 83 -4 271 16 334 59 190 253 276 482 213z m1143 -7 c69
-25 133 -84 166 -152 46 -94 56 -339 19 -472 -41 -146 -179 -230 -363 -221
-147 7 -253 72 -303 185 -47 107 -47 388 1 499 28 64 91 126 156 155 92 41
224 43 324 6z"/>
<path d="M1875 2286 c-40 -17 -82 -67 -95 -114 -13 -49 -13 -267 1 -317 41
-148 286 -168 355 -28 23 47 33 273 15 341 -14 51 -55 100 -98 118 -41 18
-139 17 -178 0z"/>
<path d="M1915 1116 c-40 -17 -82 -67 -95 -114 -13 -49 -13 -267 1 -317 41
-148 286 -168 355 -28 23 47 33 273 15 341 -14 51 -55 100 -98 118 -41 18
-139 17 -178 0z"/>
</g>
</svg>
