<?xml version="1.0" encoding="utf-8"?>
<!-- Generator: Adobe Illustrator 17.1.0, SVG Export Plug-In . SVG Version: 6.00 Build 0)  -->
<!DOCTYPE svg PUBLIC "-//W3C//DTD SVG 1.1//EN" "http://www.w3.org/Graphics/SVG/1.1/DTD/svg11.dtd">
<svg version="1.1" id="Layer_1" xmlns="http://www.w3.org/2000/svg" xmlns:xlink="http://www.w3.org/1999/xlink" x="0px" y="0px"
	 viewBox="0 193.2 226.8 38.9" enable-background="new 0 193.2 226.8 38.9" xml:space="preserve">
<g>
	<path fill="#FFF200" d="M68.9,193.2c-0.7,0-1.1,0.5-1.1,1.1v35.2h-2.1l-12.3-35.6c-0.2-0.5-0.6-0.8-1.1-0.8h-4.1
		c-0.7,0-1.1,0.5-1.1,1.1v34.5c0,1.7,1.4,3.1,3.1,3.1c1.7,0,3-1.3,3-3v-17.3c0-0.7-0.5-1.1-1.1-1.1c-0.7,0-1.1,0.5-1.1,1.1v17.3
		c0,0.4-0.3,0.8-0.8,0.8c-0.4,0-0.8-0.3-0.8-0.8v-33.4h2.1L63.9,231c0.2,0.5,0.6,0.8,1.1,0.8h4.1c0.7,0,1.1-0.5,1.1-1.1v-36.4
		C70.2,193.7,69.6,193.2,68.9,193.2z"/>
	<path fill="#FFF200" d="M86.2,193.2h-8.4c-1.7,0-3.1,1.4-3.1,3.1s1.4,3.1,3.1,3.1h7.4c2.9,0,5.3,2.4,5.3,5.3c0,0.7,0.5,1.1,1.1,1.1
		c0.7,0,1.1-0.5,1.1-1.1c0-3.6-2.5-6.6-5.9-7.4c-0.2-0.2-0.4-0.2-0.7-0.2h-8.4c-0.4,0-0.8-0.3-0.8-0.8c0-0.4,0.3-0.8,0.8-0.8h8.4
		c5.1,0,9.3,4.2,9.3,9.3v15.6c0,5.1-4.2,9.3-9.3,9.3h-8.4c-0.4,0-0.8-0.3-0.8-0.8v-19.3c0-0.7-0.5-1.1-1.1-1.1
		c-0.7,0-1.1,0.5-1.1,1.1V229c0,1.7,1.4,3.1,3.1,3.1h8.4c6.4,0,11.5-5.2,11.5-11.5V205C97.8,198.4,92.6,193.2,86.2,193.2z"/>
	<path fill="#FFF200" d="M41.3,193.2H32c-0.5,0-1,0.3-1.1,0.8l-8.6,24.7c-0.7,2.2-1.7,5-3.4,7.2c-1.8,2.5-4.1,3.6-7,3.6
		c-5.1,0-9.3-4.2-9.3-9.3v-15.6c0-5.1,4.2-9.3,9.3-9.3s9.3,4.2,9.3,9.3c0,0.4-0.3,0.8-0.8,0.8c-0.4,0-0.8-0.3-0.8-0.8
		c0-4.2-3.4-7.6-7.6-7.6c-0.7,0-1.1,0.5-1.1,1.1c0,0.6,0.5,1.1,1.1,1.1c2.9,0,5.3,2.4,5.3,5.3c0,1.7,1.4,3.1,3.1,3.1
		c1.7,0,3.1-1.4,3.1-3.1c0-6.4-5.2-11.5-11.5-11.5s-11.6,5.2-11.6,11.5v15.6c0,6.4,5.2,11.5,11.5,11.5c8.3,0,11-7.7,12.5-12.4
		l8.4-24h7.3v33.4c0,0.4-0.3,0.8-0.8,0.8c-0.4,0-0.8-0.3-0.8-0.8v-10.7c0-0.7-0.5-1.1-1.1-1.1h-6.7c-0.7,0-1.1,0.5-1.1,1.1
		s0.5,1.1,1.1,1.1h5.6v9.5c0,1.7,1.4,3.1,3.1,3.1c1.7,0,3.1-1.4,3.1-3.1V194C42.4,193.7,41.9,193.2,41.3,193.2z"/>
	<path fill="#FFF200" d="M121.6,193.6c-1.5-0.9-3.4-0.5-4.3,1l-8.3,13.3l-8.8-14.2c-0.3-0.6-1.1-0.7-1.6-0.4
		c-0.6,0.3-0.7,1.1-0.4,1.6l9.8,15.8c0.2,0.3,0.6,0.6,1,0.6l0,0c0.4,0,0.8-0.2,1-0.6l9.3-14.9c0.2-0.4,0.7-0.5,1.1-0.2
		c0.2,0.1,0.3,0.3,0.3,0.5c0.1,0.2,0,0.4-0.1,0.6l-10.3,16.5c-0.1,0.2-0.2,0.4-0.2,0.7v16.8c0,0.7,0.5,1.1,1.1,1.1
		c0.7,0,1.1-0.5,1.1-1.1v-16.4l10.2-16.3l0,0l0,0c0.4-0.7,0.6-1.6,0.4-2.4C122.7,194.8,122.2,194.1,121.6,193.6z"/>
	<path fill="#FFF200" d="M137.5,195.5c4.4,0,7.9,3.6,7.9,7.9c0,0.7,0.5,1.1,1.1,1.1s1.1-0.5,1.1-1.1c0-5.6-4.6-10.3-10.3-10.3
		c-5.6,0-10.3,4.6-10.3,10.3c0,6.8,5.2,8.6,9.9,10.2c4.5,1.6,8.4,2.9,8.4,8c0,4.4-3.6,7.9-7.9,7.9c-4.4,0-7.9-3.6-7.9-7.9
		c0-0.4,0.3-0.8,0.8-0.8c0.4,0,0.8,0.3,0.8,0.8c0,3.5,2.9,6.4,6.4,6.4s6.4-2.9,6.4-6.4c0-0.7-0.5-1.1-1.1-1.1
		c-0.7,0-1.1,0.5-1.1,1.1c0,2.2-1.8,4-4,4s-4-1.8-4-4c0-1.7-1.4-3.1-3.1-3.1c-1.7,0-3.1,1.4-3.1,3.1c0,5.6,4.6,10.3,10.3,10.3
		c5.6,0,10.3-4.6,10.3-10.3c0-6.8-5.2-8.6-9.9-10.2c-4.5-1.6-8.4-2.9-8.4-8C129.4,199.1,133,195.5,137.5,195.5z"/>
	<path fill="#FFF200" d="M169.3,193.2c-1.7,0-3.1,1.4-3.1,3.1v15.1h-10.6c-0.7,0-1.1,0.5-1.1,1.1v16.2c0,0.4-0.3,0.8-0.8,0.8
		c-0.4,0-0.8-0.3-0.8-0.8v-34.4c0-0.7-0.5-1.1-1.1-1.1c-0.7,0-1.1,0.5-1.1,1.1v34.5c0,1.7,1.4,3.1,3.1,3.1c1.7,0,3.1-1.4,3.1-3.1
		v-15.1h10.6c0.7,0,1.1-0.5,1.1-1.1v-16.2c0-0.4,0.3-0.8,0.8-0.8c0.4,0,0.8,0.3,0.8,0.8v34.4c0,0.7,0.5,1.1,1.1,1.1
		c0.7,0,1.1-0.5,1.1-1.1v-34.4C172.4,194.6,171,193.2,169.3,193.2z"/>
	<path fill="#FFF200" d="M214.8,193.2h-8.4c-1.7,0-3.1,1.4-3.1,3.1s1.4,3.1,3.1,3.1h8.4c0.7,0,1.1-0.5,1.1-1.1
		c0-0.7-0.5-1.1-1.1-1.1h-8.4c-0.4,0-0.8-0.3-0.8-0.8c0-0.4,0.3-0.8,0.8-0.8h8.4c5.1,0,9.3,4.2,9.3,9.3c0,5.1-4.2,9.3-9.3,9.3h-10.4
		c-0.7,0-1.1,0.5-1.1,1.1V231c0,0.7,0.5,1.1,1.1,1.1c0.7,0,1.1-0.5,1.1-1.1v-14.6h9.3c6.4,0,11.5-5.2,11.5-11.5
		C226.4,198.4,221.2,193.2,214.8,193.2z"/>
	<path fill="#FFF200" d="M188.5,193.2c-6.4,0-11.5,5.2-11.5,11.5c0,0.7,0.5,1.1,1.1,1.1c0.7,0,1.1-0.5,1.1-1.1
		c0-5.1,4.2-9.3,9.3-9.3s9.3,4.2,9.3,9.3v15.6c0,2.5-1,4.7-2.7,6.5c-1.7,1.7-4.1,2.7-6.5,2.7c-5.1,0-9.3-4.2-9.3-9.3V212
		c0-0.4,0.3-0.8,0.8-0.8c0.4,0,0.8,0.3,0.8,0.8v8.3c0,0.7,0.5,1.1,1.1,1.1c0.7,0,1.1-0.5,1.1-1.1V212c0-1.7-1.4-3.1-3.1-3.1
		c-1.7,0-3.1,1.4-3.1,3.1v8.3c0,6.4,5.2,11.5,11.5,11.5c6.4,0,11.5-5.2,11.5-11.5v-15.6C200.1,198.4,194.9,193.2,188.5,193.2z"/>
</g>
</svg>
